<svg xmlns="http://www.w3.org/2000/svg" viewBox="0 0 200 200">
  <defs>
    <linearGradient id="g" x1="0" x2="1" y1="0" y2="1">
      <stop offset="0" stop-color="#f59e0b"/>
      <stop offset="1" stop-color="#b45309"/>
    </linearGradient>
  </defs>
  <rect width="200" height="200" rx="24" fill="url(#g)"/>
  <g fill="none" stroke="#ffffff" stroke-width="10" stroke-linecap="round" stroke-linejoin="round">
    <path d="M100 45v120"/>
    <path d="M100 65c-20 0-28-16-28-16s8-16 28-16"/>
    <path d="M100 95c-20 0-28-16-28-16s8-16 28-16"/>
    <path d="M100 125c-20 0-28-16-28-16s8-16 28-16"/>
    <path d="M100 65c20 0 28-16 28-16s-8-16-28-16"/>
    <path d="M100 95c20 0 28-16 28-16s-8-16-28-16"/>
    <path d="M100 125c20 0 28-16 28-16s-8-16-28-16"/>
  </g>
</svg>

